<svg width="470" height="470" viewBox="0 0 470 470" fill="none" xmlns="http://www.w3.org/2000/svg">
<rect width="470" height="470" rx="235" fill="#BABABA"/>
<path d="M150.328 261.262C150.527 255.712 149.188 252.293 146.311 251.005C143.534 249.617 137.582 249.964 128.456 252.045C114.371 255.415 101.774 252.293 90.6643 242.68C79.5548 233.067 74 218.747 74 199.719C74.0992 180.79 80.993 164.438 94.6816 150.663C108.37 136.888 124.737 130 143.782 130C152.411 130 161.785 132.131 171.903 136.392C182.02 140.654 190.65 146.996 197.792 155.42C198.387 156.213 199.032 156.56 199.726 156.46C200.42 156.361 201.016 155.915 201.512 155.123C205.876 147.987 211.48 141.991 218.325 137.135C225.268 132.279 234.443 130 245.85 130.297C260.63 130.991 273.872 140.108 285.577 157.65C286.172 158.542 286.916 158.988 287.809 158.988C288.701 158.988 289.396 158.492 289.892 157.501C294.058 149.771 299.315 143.428 305.663 138.473C312.012 133.518 319.947 131.041 329.469 131.041C341.67 131.239 351.738 134.955 359.673 142.19C367.609 149.424 373.362 161.564 376.933 178.61C379.115 190.403 383.678 196.647 390.621 197.34C392.605 197.439 393.647 198.282 393.746 199.867C393.944 201.453 392.754 202.642 390.175 203.435C370.932 209.976 357.69 220.481 350.449 234.95C343.208 249.32 343.505 267.654 351.341 289.952C354.813 300.06 359.773 307.196 366.22 311.358C372.767 315.421 379.909 315.074 387.646 310.318C390.522 308.633 392.655 308.682 394.044 310.466C395.531 312.151 395.283 313.836 393.3 315.52C386.555 320.872 379.859 326.224 373.213 331.575C366.666 336.828 360.07 342.08 353.424 347.332C352.333 348.125 351.292 348.125 350.3 347.332C329.172 330.386 316.426 311.556 312.061 290.844C307.796 270.131 321.484 245.603 353.127 217.26C353.821 216.566 354.119 215.873 354.019 215.179C354.019 214.485 353.573 213.891 352.68 213.395C345.737 208.737 340.629 196.795 337.355 177.569C333.883 158.542 326.146 148.929 314.144 148.73C305.614 148.532 298.373 154.776 292.421 167.461C292.024 168.155 292.024 168.848 292.421 169.542C296.29 177.768 299.067 186.935 300.753 197.043C302.539 207.152 302.638 217.855 301.051 229.152C297.083 256.505 291.181 277.168 283.345 291.141C275.608 305.016 266.383 318.89 255.67 332.764C241.486 350.504 228.095 352.436 215.498 338.562C211.927 334.598 208.157 332.021 204.19 330.832C200.321 329.643 195.858 331.03 190.799 334.994C188.914 336.58 187.277 336.778 185.889 335.589C184.599 334.3 184.698 332.715 186.186 330.832C198.883 313.191 208.951 303.133 216.39 300.655C223.929 298.177 231.269 300.259 238.411 306.898C244.263 312.349 249.62 315.273 254.48 315.669C259.44 316.065 263.308 312.399 266.086 304.669C271.442 289.803 273.327 269.041 271.74 242.383C270.252 215.625 264.846 195.111 255.522 180.84C246.297 166.569 237.469 158.195 229.037 155.717C220.705 153.141 213.117 155.321 206.273 162.258C205.281 163.249 205.231 164.29 206.124 165.38C217.928 181.732 224.276 200.66 225.169 222.166C225.764 239.806 222.342 256.752 214.902 273.005C207.463 289.159 197.891 304.669 186.186 319.534C173.391 335.787 161.24 345.103 149.733 347.481C138.326 349.86 127.861 344.062 118.339 330.089C110.007 317.602 101.526 316.065 92.8961 325.48C90.8131 327.264 88.9284 327.314 87.2422 325.629C85.6551 323.944 85.9031 322.012 87.9861 319.831C115.066 292.281 136.342 288.664 151.816 308.98C154.296 312.349 156.627 315.471 158.809 318.345C161.091 321.219 164.463 322.557 168.927 322.359C174.68 322.16 180.731 315.867 187.079 303.479C193.427 291.092 196.602 275.483 196.602 256.653C196.403 231.977 189.956 210.372 177.259 191.84C164.562 173.209 150.031 163.001 133.664 161.217C117.297 159.533 104.402 162.605 94.9791 170.434C85.5559 178.263 80.993 187.529 81.2906 198.232C81.5882 209.134 84.4648 217.855 89.9203 224.395C95.4751 230.936 105.692 232.274 120.571 228.409C149.237 221.075 161.686 231.63 157.917 260.072C157.52 263.045 156.131 264.582 153.75 264.681C151.469 264.681 150.328 263.541 150.328 261.262Z" fill="#314158"/>
<circle cx="234.5" cy="234.5" r="212" stroke="#314158" stroke-width="15"/>
</svg>
